<svg width="122" height="122" viewBox="0 0 122 122" fill="none" xmlns="http://www.w3.org/2000/svg">
<path fill-rule="evenodd" clip-rule="evenodd" d="M61.0001 20.3334C38.5405 20.3334 20.3334 38.5404 20.3334 61C20.3334 71.6705 24.4411 81.3835 31.171 88.6419C31.4251 87.8012 31.7631 86.9754 32.2039 86.1873C33.6984 83.5152 35.5836 81.0444 37.8205 78.8597C40.0654 76.6671 42.5981 74.8269 45.3299 73.3732C41.1693 69.3906 38.5681 63.8246 38.5681 57.6111C38.5681 45.3332 48.7249 35.5834 61.0001 35.5834C73.2753 35.5834 83.432 45.3332 83.432 57.6111C83.432 63.8246 80.8308 69.3906 76.6703 73.3732C79.402 74.8269 81.9347 76.6671 84.1796 78.8597C86.4165 81.0444 88.3018 83.5153 89.7963 86.1873C90.2371 86.9754 90.575 87.8012 90.8291 88.6419C97.5591 81.3835 101.667 71.6705 101.667 61C101.667 38.5404 83.4597 20.3334 61.0001 20.3334ZM81.0341 96.3987C81.2315 95.3833 81.3304 94.4302 81.3333 93.5857C81.3382 92.1904 81.0826 91.4351 80.9232 91.1501C79.9037 89.3273 78.6139 87.6349 77.0759 86.1328C72.8324 81.9881 67.0519 79.6389 61.0001 79.6389C54.9483 79.6389 49.1678 81.9881 44.9242 86.1328C43.3863 87.6349 42.0965 89.3273 41.077 91.1501C40.9175 91.4351 40.6619 92.1904 40.6668 93.5857C40.6698 94.4302 40.7687 95.3833 40.966 96.3987C46.8761 99.7517 53.708 101.667 61.0001 101.667C68.2921 101.667 75.1241 99.7517 81.0341 96.3987ZM61.0001 69.4722C67.8876 69.4722 73.2653 64.0495 73.2653 57.6111C73.2653 51.1727 67.8876 45.75 61.0001 45.75C54.1125 45.75 48.7348 51.1727 48.7348 57.6111C48.7348 64.0495 54.1125 69.4722 61.0001 69.4722ZM10.1667 61C10.1667 32.9255 32.9256 10.1667 61.0001 10.1667C89.0746 10.1667 111.833 32.9255 111.833 61C111.833 79.0828 102.388 94.9558 88.1857 103.96C80.3204 108.947 70.9896 111.833 61.0001 111.833C51.0106 111.833 41.6798 108.947 33.8145 103.96C19.6123 94.9558 10.1667 79.0828 10.1667 61Z" fill="#F7F7F7"/>
</svg>
